PathFileType	4	(X/Y/Z)	C:\Users\WrightLab\Desktop\Jo\P4V12.trc
DataRate	CameraRate	NumFrames	NumMarkers	Units	OrigDataRate	OrigDataStartFrame	OrigNumFrames
100.00	100.00	       23	19	mm	100.00	226	       602
Frame#	Time	Headset_Front			Headset_Back			Headset_Left			Headset_Right			Left_Shoulder			Right_Shoulder			Sternum			C7			Left Elbow			Right Elbow			Left Wrist			Right Wrist			Left ASIS			Right ASIS			S2			Left Knee			Right Knee			Left Ankle			Right Ankle			
		X1	Y1	Z1	X2	Y2	Z2	X3	Y3	Z3	X4	Y4	Z4	X5	Y5	Z5	X6	Y6	Z6	X7	Y7	Z7	X8	Y8	Z8	X9	Y9	Z9	X10	Y10	Z10	X11	Y11	Z11	X12	Y12	Z12	X13	Y13	Z13	X14	Y14	Z14	X15	Y15	Z15	X16	Y16	Z16	X17	Y17	Z17	X18	Y18	Z18	X19	Y19	Z19	

226	2.250							-156.68166	1689.96814	724.30487	84.36217	1057.43176	841.86365	-116.81248	1512.40222	852.58325	145.10889	1542.64880	699.21008	-46.45593	1465.35413	683.55005	36.78336	1568.20923	812.66541	-181.01532	1140.16321	919.46606	232.40504	1351.24622	215.35013	-236.78429	876.61176	768.90765	332.70389	1310.78284	494.96298	-136.32162	1031.99219	769.26813	139.91171	1032.18982	578.54706				-174.00612	553.34290	710.96167	253.56973	572.60645	691.82391	-121.00430	67.64839	658.52185	383.31464	174.04752	1003.59760	
227	2.260							-165.29874	1690.82056	717.84131				-124.81225	1514.10999	846.76935	136.17747	1543.33765	692.02588	-55.73440	1466.27258	677.90063	28.84416	1568.91174	806.43335	-189.69820	1141.70227	914.27979	226.07214	1352.61401	209.23975	-244.91347	877.62207	764.01923	325.65292	1312.06812	489.50900	-144.86865	1033.10266	764.28302	129.10326	1032.31689	570.22626				-179.63007	553.52142	707.12726	243.77762	572.38330	675.64197	-121.43967	67.77602	658.00867	378.26678	183.40170	996.40265	
228	2.270							-172.74025	1692.51306	710.74054				-132.37051	1514.30688	841.21423	127.22898	1544.02795	685.06885	-64.71054	1467.58887	671.97864	21.48787	1569.26367	799.98126	-198.37463	1143.32751	909.65497	220.18999	1353.91980	204.17659	-250.82028	877.81573	761.03229	318.15146	1313.24719	484.67163	-153.48476	1034.09497	759.96515	117.68543	1032.63135	562.21985				-183.20554	553.27222	703.56750	231.91016	570.05432	659.46191	-122.19711	68.44171	657.62494	373.01776	193.34373	988.19427	
229	2.280							-181.38557	1693.48938	704.13947				-140.97443	1515.60693	834.93091	118.30872	1545.04504	678.64502	-73.58401	1468.48206	665.96588	13.23975	1570.15869	793.70111	-207.55820	1144.95300	904.21423	214.07671	1354.88379	197.85028	-258.79694	879.06769	756.92981	311.19977	1314.85181	479.20670	-161.96928	1035.32800	756.10510	106.64084	1032.75513	554.01245				-189.37917	553.35614	700.63281	221.03043	569.62848	640.92719	-122.89970	68.54877	657.14252	366.44110	203.57866	978.20062	
230	2.290							-189.08029	1694.68066	697.15070				-148.59190	1516.86047	829.93719	109.39891	1545.81702	672.03125	-82.59509	1469.50549	660.12421	4.05728	1570.97742	787.60040	-216.29843	1146.22083	899.27325	208.38573	1356.05310	192.28529	-267.86615	880.25470	752.47784	303.81888	1316.02502	474.22714	-169.90564	1036.73621	752.33746	95.57671	1033.11780	546.92780				-196.41754	553.76343	698.01324	209.19359	568.05182	623.48444	-123.17049	68.48159	657.00421	358.71808	214.11748	967.57007	
231	2.300							-197.15640	1695.79578	690.23889				-155.77467	1518.21838	824.18866	100.64375	1546.33533	665.37811	-91.35471	1470.22974	654.06177	-4.02627	1571.63159	781.36835	-225.54466	1148.04541	894.19080	203.07266	1357.30566	186.78609	-275.22754	881.15991	747.88629	297.10486	1317.48645	469.28741	-178.17427	1038.03772	748.68011	85.36944	1033.37390	539.27759				-203.10460	554.23773	695.69916	196.11659	566.80786	606.66650	-123.26397	68.50474	656.84814	350.43042	224.88988	955.31665	
232	2.310							-206.12912	1696.74158	683.62885				-163.95081	1519.54285	818.83136	92.14389	1547.13538	658.40692	-100.29628	1471.14490	648.65839	-11.33619	1572.22583	774.90430	-233.87015	1149.39722	889.66229	197.19170	1358.14917	180.58662	-283.58511	882.35822	743.12714	289.56763	1318.36609	464.44031	-182.60951	1034.97913	746.08685	74.54044	1033.57483	531.95642				-209.30270	554.38403	693.69324	182.57259	565.68317	587.88196	-123.46618	68.63430	656.82666	340.82800	236.00137	942.46747	
233	2.320							-213.21750	1697.27417	676.47418				-172.20366	1520.12427	810.67499	83.70246	1548.38342	654.14545	-108.81224	1471.74878	642.64203	-19.60177	1572.94177	768.75403	-243.35977	1150.86853	884.43823	191.26598	1359.03735	175.63544	-292.26578	884.10260	738.44019	282.97702	1319.82739	459.77319	-190.94135	1036.42578	742.54395	64.47612	1034.49243	524.81158				-215.48010	554.51837	691.47314	168.87148	563.98077	570.88507	-123.48445	68.45421	656.33118	330.28137	247.01929	928.47516	
234	2.330							-221.78642	1698.54797	669.46320				-180.04994	1520.82275	803.47089	75.29975	1548.93738	649.14301	-116.66694	1472.50647	636.44147	-27.81342	1573.88672	762.63019	-252.33720	1152.12231	879.84869	185.94115	1359.84631	170.19055	-300.47668	885.51300	733.10449	275.73749	1321.32605	454.29285	-198.42558	1037.96191	738.23090	54.13982	1035.06506	517.90796				-220.00728	553.93329	689.34912	154.87459	562.60999	554.06848	-123.52903	68.43737	656.29608	318.44003	257.83249	913.28027	
235	2.340							-227.95187	1698.46338	661.94928				-187.37752	1522.74817	801.36029	66.55354	1550.78784	638.07428	-125.36431	1473.31262	631.19318	-35.07179	1574.94495	756.21985	-261.70471	1153.73120	875.37079	180.78976	1360.34070	164.06375	-309.39700	886.99438	727.96680	268.98907	1321.82080	449.73480	-205.41879	1038.58142	735.01813	44.46248	1035.89307	511.91568				-223.88258	554.17908	687.96173	139.44788	561.94049	538.00696	-123.53035	68.43871	656.29700	306.69547	266.66974	899.13867	
236	2.350							-237.33049	1700.05591	655.09314				-194.93414	1523.89600	795.90289	58.87694	1551.24902	635.19501	-132.96455	1473.82520	624.85339	-43.40420	1575.94006	750.35474	-270.67419	1155.11584	870.08685	175.02887	1361.18274	159.31105	-319.34198	888.88165	722.20673	261.75684	1322.72656	444.21515	-212.23125	1039.10645	731.89581	34.30815	1036.98853	504.98178				-228.06538	554.34460	686.37146	122.92612	561.78033	522.89752	-123.56637	68.41792	656.30994	296.32968	273.79047	884.28882	
237	2.360							-244.18347	1700.56982	647.45490				-202.48816	1524.75671	790.01910	51.27899	1552.01758	630.05695	-140.62190	1474.68347	618.95953	-51.59615	1577.32019	744.26471	-279.87402	1156.73108	864.86847	169.52083	1361.39783	153.90971	-327.83481	889.83649	716.65948	255.44778	1324.25696	439.10254	-218.89629	1039.96814	728.66779	24.46994	1038.04749	498.73044	11.60851	1063.73389	769.68921	-230.47292	554.40546	685.14642	106.86327	561.35065	507.95624	-123.57627	68.40082	656.32141	286.87460	279.20773	870.31665	
238	2.370							-253.34969	1701.53711	640.59045				-209.85445	1525.85083	784.16589	42.89723	1553.76367	620.77728	-148.34692	1475.54224	613.21240	-58.70867	1578.23376	738.16956	-288.71686	1158.05408	859.64081	164.17322	1361.83154	147.85356	-337.28662	891.17352	712.13556	247.99667	1325.22180	434.83377	-226.05020	1040.93201	725.61816	15.70802	1039.76611	492.63657	4.78316	1063.97705	761.45825	-233.53896	553.70984	683.70557	91.11322	561.94324	493.61285	-123.60590	68.36342	656.39001	277.26816	283.09827	855.21393	
239	2.380							-259.83328	1701.36475	632.85742				-217.43489	1526.85144	778.87897	35.72281	1554.50879	616.38519	-155.81508	1476.45532	607.72070	-66.18503	1579.75854	732.12671	-297.93771	1159.37988	854.50452	159.16479	1362.54724	142.86652	-345.33337	892.29199	707.13458	241.15768	1326.45544	429.69659	-231.62987	1041.05908	722.31763	6.21240	1041.70520	486.30801	-0.55164	1065.61060	754.94788	-236.28546	554.07953	682.98206	74.62046	562.34808	479.24124	-123.68752	68.51482	656.85083	267.23535	286.05380	839.38306	
240	2.390							-267.71222	1702.57825	625.39758				-224.49933	1528.07373	773.20685	27.90880	1556.14587	608.74756	-163.17245	1477.34473	602.15143	-74.19412	1581.24011	726.18951	-306.24130	1160.66809	848.81427	153.79553	1362.87305	137.62894	-353.78818	893.62769	701.79108	234.52957	1327.52112	424.89194	-238.03519	1042.38367	719.44397	-3.60513	1043.26221	479.83585	-7.47761	1066.35046	748.78363	-239.26382	553.74152	682.87500	57.72975	563.14990	465.59366	-123.92722	68.40489	657.01093	256.92349	287.27106	822.99506	
241	2.400							-275.74283	1703.27942	617.99139				-231.70911	1529.32092	768.06830	20.64426	1557.15259	604.62921	-170.24767	1478.29529	596.32050	-81.58868	1582.74060	720.29340	-315.31387	1162.23877	842.89233	148.83257	1363.14551	131.96356	-363.32739	895.10236	696.53888	227.75520	1328.54431	420.46991	-243.90044	1042.36414	716.47943	-12.72658	1045.29309	473.42422	-11.40428	1068.89844	742.41638	-242.24481	553.54755	682.44684	41.41825	564.64301	452.09851	-124.20331	68.41834	657.13440	245.85999	287.49588	805.57080	
242	2.410							-282.40573	1703.34290	610.24744				-238.50089	1529.95972	761.99554	13.61530	1558.26013	599.61163	-177.88748	1479.34180	591.21973	-89.68527	1584.31555	714.46692	-324.35605	1164.02673	837.81683	143.13144	1363.36096	127.06009	-372.26941	896.51813	690.39502	221.24855	1329.43909	416.17661	-250.03250	1043.00293	713.30249	-21.78421	1047.96387	467.53015	-16.30764	1070.39636	735.91345	-243.94125	553.40131	681.71301	24.36636	566.35675	438.94479	-124.28732	68.34863	657.18573	234.28587	286.61020	787.87225	
243	2.420							-290.93686	1704.61060	603.01141				-245.30556	1531.47168	756.82910	6.25784	1559.47498	593.05695	-184.67378	1480.24646	585.57599	-96.49499	1585.63525	708.58270	-332.16776	1165.29321	831.87750	138.35437	1363.48889	122.02850	-381.06256	897.56512	685.14178	214.50427	1330.64319	411.52380	-255.65549	1043.80176	710.26007	-31.74798	1048.80798	462.48401	-23.84626	1071.54785	730.05945	-246.81230	553.22333	681.03363	6.50512	568.32458	426.18420	-124.35295	68.31296	657.24860	221.85335	284.62375	769.96765	
244	2.430							-297.39276	1704.36462	595.29596				-252.42172	1532.56482	751.26105	-0.75995	1560.44250	588.50934	-191.96782	1481.28870	580.38025	-103.80397	1586.70410	702.87555	-340.45563	1166.65698	825.45917	132.73662	1363.66211	117.29123	-389.90836	898.89484	678.98395	208.61974	1331.11450	407.45468	-261.55469	1043.31909	707.04095	-39.82424	1051.69910	454.78827	-29.11217	1072.80994	723.06665	-248.81586	554.09930	681.09137	-10.36703	570.33893	414.54987	-124.41400	68.27221	657.26495	208.90399	281.06137	752.67389	
245	2.440							-304.13651	1704.29614	587.74664				-258.82965	1533.52466	745.76044	-8.09335	1561.71252	581.04590	-198.95459	1482.08594	574.93457	-110.59349	1587.55493	697.04999	-348.86548	1168.09265	819.54987	126.69873	1363.51355	112.44851	-399.41409	900.38776	672.95148	201.73495	1332.17883	402.77213	-268.33154	1044.36694	704.22736	-48.69763	1053.49438	449.00833	-35.15446	1073.88831	715.78796	-249.73384	553.86188	680.77637	-27.55269	572.97266	402.02548	-125.35326	69.00854	657.63391	195.67810	276.77536	734.68817	
246	2.450							-310.44949	1703.99255	580.10681				-265.50269	1534.88586	740.46826	-15.15293	1562.75549	574.38110	-205.62766	1482.79907	569.10535	-118.39937	1589.01208	691.49689	-356.92734	1169.54712	813.91089	121.46741	1362.72400	108.53289	-407.47391	901.31329	667.45276	195.85190	1333.01196	398.37503	-272.78326	1044.67126	700.87939	-58.78354	1055.11755	442.46973	-39.65538	1074.98840	709.30505	-251.36873	553.79401	679.45752	-43.92430	574.97736	390.99591	-125.49740	69.06490	657.75507	181.56325	271.58258	716.62048	
247	2.460							-318.37735	1704.17102	573.09424				-272.75745	1535.24500	734.94415	-21.56636	1562.82056	571.29492	-212.82628	1483.35706	564.29785	-125.37076	1590.03479	685.73199	-365.11697	1170.63940	807.91119	115.90994	1362.68640	103.51464	-416.18546	902.42340	661.29919	189.33794	1333.94641	394.29083	-277.62161	1044.37463	697.31738	-67.75158	1055.98535	436.53119	-44.30695	1076.46130	702.34601	-252.95094	553.56555	678.59241	-61.06403	577.65900	380.16266	-124.85426	68.54905	657.34570	166.46078	265.61774	698.45404	
248	2.470							-325.56711	1704.60132	565.70331				-279.28586	1536.47888	729.43341	-29.15026	1563.28552	566.27789	-219.41150	1483.98059	558.40009	-132.31268	1590.49548	680.05585	-372.70071	1171.74182	801.78949	110.38099	1361.90466	99.32518	-426.01462	904.17798	654.08783	183.66560	1334.37195	390.39075	-283.48926	1045.21265	692.67511	-77.05571	1056.85803	429.92239	-49.76597	1077.49451	695.93463	-254.00258	553.46710	678.63617	-77.48927	580.04077	370.05765	-125.12104	68.40021	656.04980	149.97438	258.01724	679.19031	
